<svg width="256" height="256" viewBox="0 0 256 256" fill="none" xmlns="http://www.w3.org/2000/svg">
<path d="M127.857 1.40662C81.264 1.40662 43.3571 39.3135 43.3571 85.9061C43.3571 98.8658 46.212 111.3 51.8433 122.858C61.1275 141.485 90.4161 191 118.741 238.885L127.857 254.307L137.028 238.79C165.328 190.944 194.591 141.471 203.89 122.807C203.92 122.742 203.954 122.678 203.988 122.616C209.54 111.126 212.353 98.7759 212.353 85.9089C212.356 39.3135 174.452 1.40662 127.857 1.40662Z" fill="#006BE5"/>
<path d="M127.848 144.7C161.179 144.7 188.199 117.68 188.199 84.3494C188.199 51.0188 161.179 23.999 127.848 23.999C94.5176 23.999 67.4978 51.0188 67.4978 84.3494C67.4978 117.68 94.5176 144.7 127.848 144.7Z" fill="#F9F9F9"/>
<path d="M134.859 92.9986H109.282C106.18 92.9986 103.662 90.4809 103.662 87.3786V52.7426C103.662 49.6403 106.18 47.1226 109.282 47.1226H134.859C147.507 47.1226 157.797 57.4128 157.797 70.0606C157.797 82.7084 147.507 92.9986 134.859 92.9986ZM114.902 81.7586H134.859C141.311 81.7586 146.557 76.5095 146.557 70.0606C146.557 63.6116 141.311 58.3626 134.859 58.3626H114.902V81.7586Z" fill="#006BE5"/>
<path d="M109.282 121.587C106.18 121.587 103.662 119.07 103.662 115.967V87.3785C103.662 84.2763 106.18 81.7585 109.282 81.7585C112.385 81.7585 114.902 84.2763 114.902 87.3785V115.967C114.902 119.073 112.388 121.587 109.282 121.587Z" fill="#006BE5"/>
<circle cx="205.719" cy="48.8195" r="41.5" fill="#F9F9F9" stroke="#006BE5" stroke-width="13"/>
<path d="M206.622 66.8195H182.67V61.7795L191.262 53.0915C192.99 51.2995 194.382 49.8115 195.438 48.6275C196.494 47.4115 197.262 46.3235 197.742 45.3635C198.222 44.3715 198.462 43.3155 198.462 42.1955C198.462 40.8195 198.078 39.7955 197.31 39.1235C196.574 38.4515 195.566 38.1155 194.286 38.1155C192.974 38.1155 191.694 38.4195 190.446 39.0275C189.198 39.6355 187.886 40.4995 186.51 41.6195L182.574 36.9635C183.566 36.0995 184.606 35.2995 185.694 34.5635C186.814 33.8275 188.094 33.2355 189.534 32.7875C191.006 32.3075 192.766 32.0675 194.814 32.0675C197.054 32.0675 198.974 32.4835 200.574 33.3155C202.206 34.1155 203.454 35.2195 204.318 36.6275C205.214 38.0035 205.662 39.5715 205.662 41.3315C205.662 42.7715 205.438 44.0995 204.99 45.3155C204.574 46.5315 203.95 47.7155 203.118 48.8675C202.318 49.9875 201.326 51.1555 200.142 52.3715C198.958 53.5555 197.614 54.8515 196.11 56.2595L191.694 60.3875V60.7235H206.622V66.8195ZM224.491 47.3315H233.563V52.4675H224.491V61.4915H219.355V52.4675H210.283V47.3315H219.355V38.2115H224.491V47.3315Z" fill="#006BE5"/>
</svg>
