<svg width="256" height="256" viewBox="0 0 256 256" fill="none" xmlns="http://www.w3.org/2000/svg">
<path d="M127.857 1.40662C81.264 1.40662 43.3571 39.3135 43.3571 85.9061C43.3571 98.8658 46.212 111.3 51.8433 122.858C61.1275 141.485 90.4161 191 118.741 238.885L127.857 254.307L137.028 238.79C165.328 190.944 194.591 141.471 203.89 122.807C203.92 122.742 203.954 122.678 203.988 122.616C209.54 111.126 212.353 98.7759 212.353 85.9089C212.356 39.3135 174.452 1.40662 127.857 1.40662Z" fill="#FF7700"/>
<path d="M127.848 144.7C161.179 144.7 188.199 117.68 188.199 84.3494C188.199 51.0188 161.179 23.999 127.848 23.999C94.5176 23.999 67.4978 51.0188 67.4978 84.3494C67.4978 117.68 94.5176 144.7 127.848 144.7Z" fill="#F9F9F9"/>
<path d="M134.859 92.9986H109.282C106.18 92.9986 103.662 90.4809 103.662 87.3786V52.7426C103.662 49.6403 106.18 47.1226 109.282 47.1226H134.859C147.507 47.1226 157.797 57.4128 157.797 70.0606C157.797 82.7084 147.507 92.9986 134.859 92.9986ZM114.902 81.7586H134.859C141.311 81.7586 146.557 76.5095 146.557 70.0606C146.557 63.6116 141.311 58.3626 134.859 58.3626H114.902V81.7586Z" fill="#FF7700"/>
<path d="M109.282 121.587C106.18 121.587 103.662 119.07 103.662 115.967V87.3785C103.662 84.2763 106.18 81.7585 109.282 81.7585C112.385 81.7585 114.902 84.2763 114.902 87.3785V115.967C114.902 119.073 112.388 121.587 109.282 121.587Z" fill="#FF7700"/>
</svg>
